<?xml version="1.0" encoding="utf-8"?>
<!DOCTYPE svg PUBLIC "-//W3C//DTD SVG 1.1//EN" "http://www.w3.org/Graphics/SVG/1.1/DTD/svg11.dtd">
<svg version="1.1" id="Ebene_1" xmlns="http://www.w3.org/2000/svg" xmlns:xlink="http://www.w3.org/1999/xlink" x="0px" y="0px"
	 width="24px" height="24px" viewBox="0.5 24.5 24 24" enable-background="new 0.5 24.5 24 24" xml:space="preserve">
<g>
	<path fill="#404040" d="M23.262,37.359c-2.271,3.719-6.402,6.221-10.762,6.221c-4.36,0-8.497-2.514-10.753-6.221
		C1.598,37.101,1.5,36.82,1.5,36.51c0-0.313,0.098-0.589,0.247-0.848c2.257-3.705,6.394-6.219,10.753-6.219
		c4.359,0,8.488,2.516,10.762,6.219c0.133,0.259,0.238,0.535,0.238,0.848C23.5,36.82,23.395,37.101,23.262,37.359z M17.248,32.182
		c0.493,0.83,0.751,1.784,0.751,2.756c0,3.031-2.47,5.502-5.499,5.502c-3.029,0-5.5-2.471-5.5-5.502
		c0-0.973,0.258-1.927,0.751-2.756c-1.92,0.979-3.513,2.523-4.683,4.328c2.104,3.243,5.49,5.501,9.432,5.501
		c3.936,0,7.326-2.258,9.432-5.501C20.77,34.705,19.162,33.16,17.248,32.182z M12.5,31.207c-2.051,0-3.729,1.688-3.729,3.734
		c0,0.313,0.269,0.59,0.582,0.59c0.321,0,0.59-0.277,0.59-0.59c0-1.404,1.16-2.555,2.557-2.555c0.32,0,0.59-0.27,0.59-0.588
		C13.09,31.476,12.82,31.207,12.5,31.207z"/>
</g>
<line fill="none" stroke="#000000" stroke-width="2.7642" stroke-miterlimit="10" x1="2.353" y1="46.498" x2="22.354" y2="26.498"/>
</svg>
