<?xml version="1.0" encoding="utf-8"?>
<!DOCTYPE svg PUBLIC "-//W3C//DTD SVG 1.1//EN" "http://www.w3.org/Graphics/SVG/1.1/DTD/svg11.dtd">
<svg version="1.1" id="Ebene_1" xmlns="http://www.w3.org/2000/svg" xmlns:xlink="http://www.w3.org/1999/xlink" x="0px" y="0px"
	 width="64px" height="64px" viewBox="0 0 64 64" enable-background="new 0 0 64 64" xml:space="preserve">
<g>
	<path d="M52.543,34.619C48.206,41.716,40.323,46.496,32,46.496c-8.324,0-16.221-4.801-20.529-11.877C11.186,34.127,11,33.592,11,33
		s0.186-1.127,0.471-1.62C15.779,24.305,23.676,19.504,32,19.504c8.323,0,16.206,4.801,20.543,11.876C52.799,31.873,53,32.408,53,33
		S52.799,34.127,52.543,34.619z M41.065,24.732c0.941,1.584,1.434,3.409,1.434,5.271c0,5.785-4.714,10.5-10.499,10.5
		s-10.5-4.715-10.5-10.5c0-1.862,0.492-3.688,1.434-5.271c-3.666,1.869-6.705,4.822-8.938,8.268C18.012,39.191,24.475,43.5,32,43.5
		c7.512,0,13.987-4.309,18.004-10.5C47.785,29.555,44.718,26.602,41.065,24.732z M32,22.871c-3.916,0-7.119,3.217-7.119,7.133
		c0,0.6,0.514,1.127,1.113,1.127c0.613,0,1.126-0.527,1.126-1.127c0-2.682,2.212-4.88,4.88-4.88c0.613,0,1.127-0.513,1.127-1.126
		C33.127,23.384,32.613,22.871,32,22.871z"/>
</g>
</svg>
