<?xml version="1.0" encoding="utf-8"?>
<!DOCTYPE svg PUBLIC "-//W3C//DTD SVG 1.1//EN" "http://www.w3.org/Graphics/SVG/1.1/DTD/svg11.dtd">
<svg version="1.1" id="Ebene_1" xmlns="http://www.w3.org/2000/svg" xmlns:xlink="http://www.w3.org/1999/xlink" x="0px" y="0px"
	 width="64px" height="64px" viewBox="0 0 64 64" enable-background="new 0 0 64 64" xml:space="preserve">
<path d="M46.602,42.964c0,4.183-3.404,7.587-7.586,7.587H17.096c-4.198,0-7.596-3.404-7.596-7.587v-21.92
	c0-4.197,3.398-7.595,7.596-7.595h21.919c1.055,0,2.109,0.208,3.077,0.664c0.241,0.096,0.425,0.344,0.488,0.599
	c0.047,0.296-0.032,0.552-0.247,0.76l-1.297,1.304c-0.23,0.231-0.551,0.303-0.831,0.208c-0.408-0.112-0.793-0.16-1.19-0.16H17.096
	c-2.319,0-4.222,1.903-4.222,4.221v21.92c0,2.325,1.903,4.221,4.222,4.221h21.919c2.325,0,4.221-1.896,4.221-4.221v-3.322
	c0-0.209,0.08-0.416,0.232-0.576l1.688-1.696c0.254-0.255,0.605-0.304,0.928-0.185c0.313,0.135,0.518,0.434,0.518,0.776V42.964
	L46.602,42.964z"/>
<path d="M60.771,28.602c0.033-0.025,0.048-0.057,0.066-0.082c0.028-0.037,0.048-0.07,0.08-0.105c0.018-0.033,0.042-0.063,0.06-0.1
	c0.016-0.033,0.045-0.064,0.056-0.1c0.017-0.029,0.038-0.074,0.054-0.104c0.015-0.035,0.038-0.068,0.052-0.105
	c0.008-0.035,0.02-0.072,0.032-0.109c0.021-0.037,0.029-0.072,0.041-0.113c0.007-0.035,0.024-0.066,0.034-0.102
	c0.006-0.041,0.018-0.078,0.022-0.121c0.004-0.039,0.008-0.084,0.023-0.123c0.009-0.033,0.013-0.072,0.015-0.107
	c0.014-0.158,0.014-0.311,0-0.469c-0.002-0.033-0.006-0.064-0.015-0.1c-0.016-0.045-0.02-0.09-0.023-0.129
	c-0.005-0.037-0.017-0.078-0.022-0.115c-0.01-0.041-0.027-0.074-0.034-0.109c-0.012-0.035-0.021-0.076-0.041-0.111
	c-0.013-0.035-0.024-0.074-0.032-0.109c-0.014-0.031-0.037-0.064-0.052-0.104c-0.016-0.035-0.037-0.068-0.054-0.109
	c-0.011-0.031-0.04-0.061-0.056-0.094c-0.018-0.031-0.042-0.064-0.06-0.104c-0.032-0.035-0.052-0.064-0.08-0.1
	c-0.018-0.027-0.033-0.057-0.066-0.084c-0.046-0.064-0.092-0.121-0.147-0.176c0-0.001,0-0.001,0-0.002l-7.126-7.125
	c-0.931-0.927-2.435-0.927-3.363,0c-0.932,0.93-0.932,2.434,0,3.36l3.065,3.07H39.935c-1.317,0-2.378,1.069-2.378,2.377
	c0,1.313,1.061,2.373,2.378,2.373h13.265l-3.065,3.068c-0.932,0.933-0.932,2.436,0,3.354c0.929,0.936,2.433,0.936,3.363,0
	l7.126-7.115l0,0C60.679,28.723,60.725,28.661,60.771,28.602z"/>
</svg>
