<?xml version="1.0" encoding="utf-8"?>
<!DOCTYPE svg PUBLIC "-//W3C//DTD SVG 1.1//EN" "http://www.w3.org/Graphics/SVG/1.1/DTD/svg11.dtd">
<svg version="1.1" id="Ebene_1" xmlns="http://www.w3.org/2000/svg" xmlns:xlink="http://www.w3.org/1999/xlink" x="0px" y="0px"
	 width="64px" height="64px" viewBox="0 0 64 64" enable-background="new 0 0 64 64" xml:space="preserve">
<g>
	<path d="M46.601,42.964c0,4.182-3.404,7.587-7.586,7.587H17.096c-4.198,0-7.596-3.405-7.596-7.587v-21.92
		c0-4.197,3.398-7.595,7.596-7.595h21.919c1.056,0,2.11,0.208,3.078,0.664c0.241,0.096,0.425,0.344,0.488,0.599
		c0.047,0.296-0.032,0.552-0.247,0.76l-1.297,1.304c-0.231,0.231-0.551,0.303-0.831,0.208c-0.408-0.112-0.793-0.16-1.191-0.16
		H17.096c-2.319,0-4.222,1.903-4.222,4.221v21.92c0,2.325,1.903,4.221,4.222,4.221h21.919c2.326,0,4.221-1.896,4.221-4.221v-3.323
		c0-0.209,0.081-0.416,0.233-0.576l1.687-1.696c0.254-0.255,0.606-0.303,0.928-0.184c0.312,0.135,0.518,0.433,0.518,0.776V42.964z
		 M51.651,26.096L33.963,43.806h-7.595v-7.589l17.7-17.716L51.651,26.096z M35.964,38.217l-4.016-3.998l-3.054,3.054v1.472h2.527
		v2.525h1.47L35.964,38.217z M43.62,22.331l-9.217,9.226c-0.233,0.231-0.257,0.623-0.024,0.872c0.231,0.232,0.624,0.208,0.872-0.041
		l9.216-9.208c0.24-0.249,0.272-0.64,0.023-0.871C44.252,22.059,43.868,22.1,43.62,22.331z M53.341,24.417l-7.579-7.594l2.425-2.431
		c0.973-0.967,2.615-0.967,3.581,0l4.003,4.014c0.973,0.967,0.973,2.598,0,3.582L53.341,24.417z"/>
</g>
</svg>
