<?xml version="1.0" encoding="utf-8"?>
<!DOCTYPE svg PUBLIC "-//W3C//DTD SVG 1.1//EN" "http://www.w3.org/Graphics/SVG/1.1/DTD/svg11.dtd">
<svg version="1.1" id="Ebene_1" xmlns="http://www.w3.org/2000/svg" xmlns:xlink="http://www.w3.org/1999/xlink" x="0px" y="0px"
	 width="36px" height="20px" viewBox="0 0 36 20" enable-background="new 0 0 36 20" xml:space="preserve">
<path fill="#FFFFFF" d="M22.887,13.211c0.152-0.152,0.152-0.382,0-0.531L20.208,10l2.679-2.68c0.152-0.148,0.152-0.378,0-0.528
	l-1.676-1.679c-0.152-0.15-0.382-0.15-0.531,0L18,7.792l-2.68-2.68c-0.15-0.15-0.378-0.15-0.528,0l-1.679,1.68
	c-0.149,0.15-0.149,0.38,0,0.528L15.792,10l-2.68,2.68c-0.15,0.149-0.15,0.379,0,0.531l1.68,1.674c0.15,0.154,0.378,0.154,0.528,0
	L18,12.208l2.68,2.677c0.149,0.154,0.379,0.154,0.531,0L22.887,13.211z"/>
</svg>
