<?xml version="1.0" encoding="utf-8"?>
<!DOCTYPE svg PUBLIC "-//W3C//DTD SVG 1.1//EN" "http://www.w3.org/Graphics/SVG/1.1/DTD/svg11.dtd">
<svg version="1.1" id="Ebene_1" xmlns="http://www.w3.org/2000/svg" xmlns:xlink="http://www.w3.org/1999/xlink" x="0px" y="0px"
	 width="32px" height="32px" viewBox="0 0 32 32" enable-background="new 0 0 32 32" xml:space="preserve">
<g opacity="0.5">
	<path d="M27.757,21.557l-1.198,1.2c-0.146,0.146-0.34,0.239-0.554,0.239c-0.196,0-0.407-0.094-0.553-0.239L16,13.308l-9.45,9.449
		c-0.145,0.146-0.361,0.239-0.553,0.239c-0.193,0-0.409-0.094-0.554-0.239l-1.202-1.2C4.097,21.408,4,21.193,4,21.004
		c0-0.193,0.097-0.412,0.241-0.556L15.446,9.244C15.592,9.097,15.807,9.002,16,9.002s0.408,0.095,0.555,0.241l11.202,11.205
		C27.904,20.592,28,20.811,28,21.004C28,21.193,27.904,21.408,27.757,21.557z"/>
</g>
</svg>
