<?xml version="1.0" encoding="utf-8"?>
<!-- Generator: Adobe Illustrator 15.0.2, SVG Export Plug-In . SVG Version: 6.00 Build 0)  -->
<!DOCTYPE svg PUBLIC "-//W3C//DTD SVG 1.1//EN" "http://www.w3.org/Graphics/SVG/1.1/DTD/svg11.dtd">
<svg version="1.1" id="Ebene_1" xmlns="http://www.w3.org/2000/svg" xmlns:xlink="http://www.w3.org/1999/xlink" x="0px" y="0px"
	 width="64px" height="64px" viewBox="0 0 64 64" enable-background="new 0 0 64 64" xml:space="preserve">
<path opacity="0.015" enable-background="new    " d="M22.688,27.587c0,0.518-0.433,0.771-1.028,0.844
	c-0.257,0.032-0.581,0.049-0.978,0.049c-0.386,0-0.511-0.017-0.773-0.049c-0.102-0.012-0.196-0.027-0.283-0.041
	c-0.002,0-0.002,0-0.005,0c-0.283-0.021-0.521-0.058-0.687-0.099c-0.177-0.052-0.302-0.115-0.394-0.19
	c-0.086-0.08-0.165-0.162-0.229-0.254l-6.945-10.053L6.42,25.181c-0.057,0.092-0.141,0.176-0.223,0.252
	c-0.094,0.08-0.229,0.145-0.395,0.191c-0.177,0.042-0.402,0.078-0.68,0.098c-0.275,0.021-0.645,0.037-1.104,0.037
	c-0.47,0-0.862-0.021-1.164-0.057c-0.301-0.036-0.519-0.094-0.662-0.176C2.05,25.449,1.995,25.335,2,25.209
	c0.01-0.133,0.087-0.297,0.229-0.489L9.1,15.644L2.598,6.897C2.473,6.701,2.395,6.536,2.389,6.411
	C2.38,6.276,2.455,6.17,2.612,6.077c0.154-0.092,0.395-0.146,0.715-0.176c0.318-0.027,0.736-0.043,1.265-0.043
	c0.468,0,0.853,0.016,1.136,0.037c0.287,0.021,0.513,0.047,0.67,0.09C6.565,6.028,6.69,6.077,6.766,6.149
	c0.082,0.07,0.16,0.154,0.226,0.246l4.354,6.709l7.09-10.514c0.063-0.078,0.131-0.154,0.217-0.227
	c0.082-0.068,0.189-0.125,0.334-0.176C19.358,2.051,20.311,2,20.684,2c0.396,0,0.721,0.019,0.977,0.048
	c0.257,0.033,0.46,0.074,0.611,0.125c0.16,0.049,0.263,0.117,0.326,0.2c0.063,0.077,0.092,0.173,0.092,0.271v11.084h7.416V6.45
	c0-0.102,0.029-0.194,0.098-0.274c0.063-0.083,0.174-0.149,0.32-0.196c0.146-0.055,0.354-0.096,0.611-0.125
	c0.262-0.033,0.461-0.049,0.858-0.049c0.394,0,0.713,0.016,0.969,0.049c0.254,0.029,0.459,0.07,0.61,0.125
	c0.147,0.047,0.26,0.113,0.329,0.196C33.969,6.256,34,6.349,34,6.45v18.721c0,0.098-0.029,0.193-0.098,0.27
	c-0.069,0.084-0.182,0.153-0.329,0.199c-0.151,0.053-0.356,0.094-0.61,0.125c-0.256,0.032-0.576,0.047-0.969,0.047
	c-0.397,0-0.597-0.016-0.858-0.047c-0.258-0.031-0.467-0.072-0.611-0.125c-0.146-0.046-0.258-0.115-0.32-0.199
	c-0.066-0.076-0.098-0.172-0.098-0.27v-8.018H22.69L22.688,27.587L22.688,27.587L22.688,27.587z M18.858,8.228l-5.346,7.17
	l5.346,7.223V8.228z"/>
<path opacity="0.015" enable-background="new    " d="M50.689,61.105c0,0.519-0.434,0.773-1.028,0.845
	c-0.257,0.032-0.58,0.05-0.978,0.05c-0.385,0-0.51-0.018-0.773-0.05c-0.102-0.011-0.196-0.025-0.283-0.041c-0.003,0-0.003,0-0.005,0
	c-0.283-0.021-0.521-0.058-0.687-0.099c-0.178-0.052-0.303-0.113-0.396-0.188c-0.084-0.08-0.163-0.162-0.229-0.255l-6.943-10.055
	l-4.947,7.387c-0.055,0.093-0.139,0.177-0.223,0.255c-0.094,0.078-0.227,0.144-0.395,0.19c-0.177,0.041-0.402,0.076-0.681,0.099
	c-0.274,0.021-0.646,0.036-1.103,0.036c-0.47,0-0.862-0.022-1.166-0.059c-0.299-0.035-0.518-0.092-0.662-0.177
	c-0.143-0.076-0.197-0.19-0.191-0.315c0.01-0.133,0.088-0.297,0.227-0.487l6.871-9.078l-6.502-8.746
	c-0.125-0.196-0.203-0.358-0.209-0.483c-0.008-0.136,0.066-0.242,0.225-0.336c0.152-0.093,0.394-0.146,0.713-0.175
	c0.32-0.026,0.736-0.043,1.266-0.043c0.469,0,0.852,0.017,1.135,0.035c0.287,0.021,0.516,0.049,0.672,0.09
	c0.168,0.045,0.293,0.093,0.367,0.163c0.084,0.073,0.162,0.154,0.228,0.247l4.354,6.709l7.09-10.513
	c0.063-0.079,0.131-0.155,0.217-0.229c0.08-0.068,0.189-0.126,0.334-0.176c0.371-0.139,1.324-0.188,1.697-0.188
	c0.396,0,0.721,0.018,0.978,0.047c0.256,0.033,0.46,0.074,0.612,0.125c0.158,0.049,0.261,0.117,0.324,0.201
	c0.063,0.075,0.092,0.172,0.092,0.27v11.085h7.414v-7.278c0-0.101,0.029-0.193,0.099-0.273c0.063-0.082,0.175-0.147,0.321-0.196
	c0.145-0.056,0.354-0.097,0.609-0.125c0.264-0.033,0.463-0.049,0.86-0.049c0.392,0,0.714,0.016,0.97,0.049
	c0.253,0.028,0.457,0.069,0.609,0.125c0.148,0.049,0.262,0.114,0.33,0.196C61.969,39.775,62,39.869,62,39.969v18.721
	c0,0.099-0.029,0.193-0.098,0.271c-0.068,0.082-0.182,0.152-0.33,0.197c-0.152,0.055-0.356,0.096-0.609,0.125
	c-0.256,0.033-0.578,0.049-0.97,0.049c-0.397,0-0.597-0.016-0.86-0.049c-0.256-0.029-0.466-0.071-0.609-0.125
	c-0.146-0.045-0.26-0.115-0.321-0.197c-0.067-0.078-0.099-0.174-0.099-0.271v-8.016h-7.414V61.105L50.689,61.105L50.689,61.105z
	 M46.861,41.748l-5.348,7.169l5.348,7.226V41.748z"/>
</svg>
